<svg width="70" height="35" viewBox="0 0 70 35" fill="none" xmlns="http://www.w3.org/2000/svg">
<path d="M0 0L70 0L60 35H0V0Z" fill="#FFD84D"/>
<path d="M25.732 11.1918C25.886 11.0639 26.062 11 26.216 11C26.414 11 26.568 11.0639 26.678 11.1705C26.81 11.2983 26.854 11.4475 26.854 11.618V15.4323H41V20.5464H26.898V24.3607C26.898 24.5312 26.832 24.6804 26.7 24.8082C26.568 24.9361 26.414 25 26.238 25C26.04 25 25.886 24.9361 25.776 24.8295L19.176 18.4368C19.066 18.3303 19 18.1811 19 17.9893C19 17.7976 19.066 17.6484 19.176 17.5419L25.732 11.1918Z" fill="#242F40" fill-opacity="0.78"/>
</svg>
