<svg width="70" height="35" viewBox="0 0 70 35" fill="none" xmlns="http://www.w3.org/2000/svg">
<path d="M70 35L0 35L12.9452 -5.83937e-05L70 -7.62939e-06L70 35Z" fill="#FFD84D"/>
<path d="M44.268 23.8082C44.114 23.9361 43.938 24 43.784 24C43.586 24 43.432 23.9361 43.322 23.8295C43.19 23.7017 43.146 23.5525 43.146 23.382L43.146 19.5677L29 19.5677L29 14.4536L43.102 14.4536L43.102 10.6393C43.102 10.4688 43.168 10.3196 43.3 10.1918C43.432 10.0639 43.586 10 43.762 10C43.96 10 44.114 10.0639 44.224 10.1705L50.824 16.5632C50.934 16.6697 51 16.8189 51 17.0107C51 17.2024 50.934 17.3516 50.824 17.4581L44.268 23.8082Z" fill="#242F40" fill-opacity="0.78"/>
</svg>
