<svg width="12" height="12" viewBox="0 0 12 12" fill="none" xmlns="http://www.w3.org/2000/svg">
<path d="M6 12C5.92492 12 5.85281 11.9643 5.79968 11.9008L0.861191 5.99831C0.305858 5.33461 0 4.45234 0 3.51386C0 2.57503 0.305858 1.69276 0.861191 1.0294C1.41638 0.365709 2.15461 0 2.94 0C3.7254 0 4.46363 0.365709 5.01882 1.0294L6.20046 2.44145C6.3111 2.57368 6.3111 2.78802 6.20046 2.92025C6.08982 3.05249 5.91047 3.05249 5.79983 2.92025L4.61819 1.50821C4.16995 0.972515 3.57396 0.677239 2.94 0.677239C2.30605 0.677239 1.71006 0.972515 1.26182 1.50821C0.813591 2.04391 0.566666 2.75619 0.566666 3.51386C0.566666 4.27152 0.813591 4.9838 1.26182 5.5195L6 11.1824L10.7382 5.5195C11.1864 4.9838 11.4333 4.27152 11.4333 3.51386C11.4333 2.75619 11.1864 2.04391 10.7382 1.50821C10.2899 0.972515 9.69395 0.677239 9.06 0.677239C8.42604 0.677239 7.83005 0.972515 7.38182 1.50821L7.01646 1.94503C6.9061 2.07726 6.72647 2.07726 6.61583 1.94503C6.50518 1.8128 6.50518 1.59845 6.61583 1.46622L6.98118 1.0294C7.53637 0.365709 8.2746 0 9.06 0C9.8454 0 10.5836 0.365709 11.1388 1.0294C11.6941 1.69276 12 2.57503 12 3.51386C12 4.45234 11.6941 5.33461 11.1388 5.99831L6.20032 11.9006C6.14719 11.9643 6.07508 12 6 12Z" fill="#242F40"/>
</svg>
