<svg width="35" height="33" fill="none" xmlns="http://www.w3.org/2000/svg"><path d="M16.52.006c1.17.061 2.306.617 3.164 1.588.86.983 1.343 2.216 1.303 3.436a6.842 6.842 0 01-.19 1.35l7.916 8.616 2.702.118a.334.334 0 01.237.107l2.394 2.583a.332.332 0 01.095.237l-.095 3.484a.33.33 0 01-.107.237l-1.481 1.387-1.043.971a.334.334 0 01-.249.095l-3.484-.166a.332.332 0 01-.225-.107l-2.37-2.547-.035-.036a.331.331 0 01-.083-.225v-.07l.083-3.211-7.655-8.189a4.746 4.746 0 01-4.538-1.505c-.858-.97-1.346-2.173-1.304-3.436a6.452 6.452 0 01.225-1.564.332.332 0 01.569-.13l2.749 2.985 1.777-.45.474-1.766L14.754.811a.33.33 0 01.119-.533A3.81 3.81 0 0116.52.006zm-2.832 11.28a.332.332 0 01.272.332v1.802a8.86 8.86 0 012.394.96l1.256-1.292a.332.332 0 01.462-.012l2.583 2.465a.331.331 0 01.012.474l-1.256 1.291a8.907 8.907 0 011.162 2.714h1.8a.332.332 0 01.332.332v3.567a.332.332 0 01-.331.331h-1.801a8.883 8.883 0 01-1.162 2.714l1.256 1.292a.332.332 0 01-.012.474l-2.583 2.465a.332.332 0 01-.462-.012l-1.244-1.292a8.889 8.889 0 01-2.406.972v1.79a.331.331 0 01-.332.33h-3.555a.331.331 0 01-.331-.33v-1.79a8.888 8.888 0 01-2.418-.972l-1.232 1.292a.331.331 0 01-.474.012L3.035 28.73a.332.332 0 010-.474l1.244-1.304a8.898 8.898 0 01-1.15-2.702h-1.8a.332.332 0 01-.333-.331v-3.567a.332.332 0 01.332-.332H3.13a8.89 8.89 0 011.15-2.713l-1.244-1.292a.332.332 0 01.011-.474l2.572-2.465a.331.331 0 01.474.012l1.244 1.292a8.894 8.894 0 012.406-.96v-1.802a.332.332 0 01.331-.331h3.555a.468.468 0 01.06 0zm14.966 5.51a.331.331 0 00-.249.084l-1.48 1.374a.33.33 0 00-.108.237l-.07 2.038v.012a.334.334 0 00.094.237v.012a.332.332 0 00.036.024l1.374 1.48c.059.064.14.102.225.107l2.05.107a.332.332 0 00.237-.095l1.494-1.374a.332.332 0 00.106-.237l.06-2.05a.331.331 0 00-.084-.237l-1.41-1.517a.332.332 0 00-.225-.107l-2.05-.095zm-16.803.297a5.054 5.054 0 00-5.048 5.048 5.054 5.054 0 005.048 5.048c2.783 0 5.036-2.265 5.036-5.048s-2.253-5.048-5.036-5.048zm16.898.38l1.79.07 1.22 1.328-.06 1.777-1.291 1.185-1.766-.083-1.232-1.327.071-1.766 1.268-1.185zm-16.898.284a4.38 4.38 0 014.384 4.384 4.38 4.38 0 01-4.384 4.384 4.38 4.38 0 01-4.384-4.384 4.38 4.38 0 014.384-4.384z" fill="#fff"/></svg>