<svg width="32" height="38" fill="none" xmlns="http://www.w3.org/2000/svg"><path fill-rule="evenodd" clip-rule="evenodd" d="M15.871.242c-5.059 0-8.994 4.808-8.994 10.53 0 5.724 3.935 10.532 8.994 10.532 5.059 0 8.994-4.808 8.994-10.531 0-5.723-3.935-10.53-8.994-10.53zm0 1.898c3.826 0 7.087 3.765 7.087 8.633 0 4.867-3.26 8.633-7.087 8.633-3.826 0-7.087-3.766-7.087-8.633 0-4.868 3.26-8.633 7.087-8.633z" fill="#fff"/><path fill-rule="evenodd" clip-rule="evenodd" d="M21.145 22.707c2.46 1.521 5.18 2.556 8.09 3.15.83 2.394.806 4.988-.006 7.83-8.83 3.309-17.658 3.159-26.592-.019-.986-2.908-.97-5.486-.06-7.893a30.609 30.609 0 008.427-3.039c1.151-.69.272-2.238-.907-1.67a28.722 28.722 0 01-8.388 2.946c-.41.112-.57.283-.701.56-1.33 3.098-1.352 6.536-.019 10.162.095.258.307.47.566.565 9.593 3.513 19.266 3.69 28.801-.007a.965.965 0 00.564-.603c1.096-3.516 1.148-6.91-.091-10.011a.85.85 0 00-.713-.583c-2.904-.536-5.573-1.52-7.964-3-1.22-.643-1.907.996-1.007 1.612z" fill="#fff"/></svg>