<svg width="21" height="21" fill="none" xmlns="http://www.w3.org/2000/svg"><path d="M7 3.24C7 1.772 6.094.52 4.813 0v2.803a1.313 1.313 0 01-2.625 0V0A3.496 3.496 0 000 3.24c0 1.468.906 2.721 2.187 3.24v13.207a1.313 1.313 0 002.625 0V6.482A3.497 3.497 0 007 3.24zm3.5 9.01V3.5l.437-1.313L10.062 0h-.875l-.875 2.187.437 1.313v8.75H7v6.125a2.625 2.625 0 005.25 0V12.25H10.5zM14.874 0a2.626 2.626 0 01-2.625 2.625V5.25h3.938v14.438a1.313 1.313 0 002.625 0V5.25h2.187V0h-6.125z" fill="#000" fill-opacity=".78"/><path d="M15.093 7h-3.5v1.313H12.6l.306 3.062h.874l.306-3.062h1.007V7z" fill="#000" fill-opacity=".78"/></svg>