<svg width="37" height="22" fill="none" xmlns="http://www.w3.org/2000/svg"><path d="M31.432 9.266a.572.572 0 00.488-.285.585.585 0 00.014-.572l-2.433-4.633a.571.571 0 00-.506-.305h-2.133a.572.572 0 00-.572.571v4.644a.571.571 0 00.572.572l4.57.008zm-4-4.633h1.223l1.826 3.474h-3.048V4.633zM12.865 17.952c.315 0 .571-.26.571-.58 0-.32-.256-.58-.571-.58a.576.576 0 00-.571.58c0 .32.255.58.57.58zM8.01 13.319c.315 0 .57-.26.57-.58 0-.32-.255-.58-.57-.58a.576.576 0 00-.572.58c0 .32.256.58.572.58z" fill="#242F40"/><path d="M32.23 17.952h2.629a1.714 1.714 0 001.713-1.737v-5.361a6.127 6.127 0 00-.605-2.454l-3.728-7.072A2.644 2.644 0 0030.051 0h-5.498a1.714 1.714 0 00-1.714 1.737v6.08h-1.12V4.345a1.144 1.144 0 00-1.142-1.156h-2a1.143 1.143 0 00-1.142 1.156v3.474h-1.142V5.79a1.143 1.143 0 00-.857-1.117v-1.2a1.142 1.142 0 00-1.143-1.16h-3.427a1.143 1.143 0 00-1.143 1.16V4.63H8.295a1.143 1.143 0 00-1.143 1.157v2.028h-.285a1.714 1.714 0 00-1.714 1.737v6.663a1.714 1.714 0 001.714 1.737H8.2a.578.578 0 100-1.157H6.867a.571.571 0 01-.572-.571v-6.67a.571.571 0 01.572-.57h16.258a.857.857 0 00.857-.858v-6.39a.571.571 0 01.571-.57h5.501a1.537 1.537 0 011.177.713L34.96 8.94c.282.6.442 1.251.47 1.914v1.32H10.152a.58.58 0 000 1.16H35.43v2.881a.57.57 0 01-.571.572H32.23a2.856 2.856 0 00-5.599 0h-9.197a.579.579 0 000 1.156h9.197a2.896 2.896 0 001.563 2.028H14.102a2.856 2.856 0 10-2.474 0H.583a.583.583 0 000 1.166H36a.578.578 0 100-1.157h-5.333a2.897 2.897 0 001.563-2.028zM18.579 4.344h1.999v3.474h-2V4.344zm-7.712-.856h3.427v1.156h-3.427V3.488zM8.295 5.804h6.855v2.028H8.295V5.804zm4.57 9.832a1.737 1.737 0 11-1.714 1.736 1.716 1.716 0 011.714-1.736zm16.567 3.473a1.736 1.736 0 111.713-1.737 1.714 1.714 0 01-1.713 1.737z" fill="#242F40"/><path d="M29.432 17.952c.316 0 .572-.26.572-.58 0-.32-.256-.58-.572-.58a.576.576 0 00-.571.58c0 .32.256.58.571.58zM.583 9.266H3.44a.578.578 0 000-1.156H.583a.578.578 0 000 1.156zm2.857 1.157H2.297a.579.579 0 000 1.156H3.44a.578.578 0 100-1.156zM.583 13.899h2.856a.58.58 0 100-1.16H.583a.58.58 0 000 1.16z" fill="#242F40"/></svg>