<svg width="15" height="14" fill="none" xmlns="http://www.w3.org/2000/svg"><path d="M1.44 14l5.703-.114 7.756-7.48a.323.323 0 000-.47L8.84.098a.353.353 0 00-.486 0L.592 7.572l-.12 5.496c0 .256.065.525.239.693.173.167.463.24.73.24zm1.627-1.667a.878.878 0 01-.61-.245.81.81 0 010-1.177.886.886 0 011.221 0 .81.81 0 010 1.178.878.878 0 01-.61.244zm5.19-3a.68.68 0 01-.693-.667A.68.68 0 018.256 8a.68.68 0 01.692.667.68.68 0 01-.692.667zm2.988-2.334H5.316a.357.357 0 01-.248-.096.333.333 0 01-.103-.237.323.323 0 01.103-.237.348.348 0 01.248-.097h5.88a.355.355 0 01.252.082.326.326 0 01.034.471.351.351 0 01-.237.114zM8.256 5.332a.68.68 0 01-.692-.666.68.68 0 01.692-.667.68.68 0 01.692.667.68.68 0 01-.692.666z" fill="#D65F5F"/></svg>