<svg width="19" height="21" fill="none" xmlns="http://www.w3.org/2000/svg"><path d="M1.982 16.044a.811.811 0 001.592.294.805.805 0 00-.642-.94c-.247-.35-.64-1.013-.64-1.709 0-1.349 1.313-2.291 1.975-2.681a.973.973 0 00-.033-1.94.965.965 0 00-.55.17.963.963 0 00-.404.624.966.966 0 00.316.908c-.865.598-1.952 1.61-1.952 2.92 0 .682.344 1.38.645 1.86a.801.801 0 00-.307.494z" fill="#000" fill-opacity=".78"/><path d="M1.31 12.337c.33-.7.874-1.277 1.414-1.72a1.618 1.618 0 111.753 1.022c-.58.362-1.537 1.103-1.537 2.05l.001.038a4.659 4.659 0 004.826-.326c1.554-1.087 2.27-2.948 1.994-4.723l1.372-.96.292-1.833 1.36.357a.33.33 0 00.08.01c.146 0 .256-.108.258-.273l.019-1.365 1.395.397a.31.31 0 00.394-.25l.247-1.359 1.38.297a.462.462 0 00.31-.063l.427-.297a.55.55 0 00.186-.269l.666-2.706c.05-.187-.064-.35-.254-.364l-2.338.002a1.148 1.148 0 00-.627.173L7.559 5.33a4.7 4.7 0 00-2.481-.71 4.66 4.66 0 00-2.677.846c-2.154 1.507-2.7 4.505-1.218 6.695.04.06.084.117.127.175z" fill="#000" fill-opacity=".78"/><path d="M17.35 11.657H9.992a5.44 5.44 0 01-1.853 2.274 5.33 5.33 0 01-.532.326 1.377 1.377 0 00-.174.072c-.821.41-2.136.56-2.135.559-.07.002-.139.008-.21.008h-.023a5.313 5.313 0 01-1.895-.36 3.4 3.4 0 00.176.315 1.457 1.457 0 11-1.842.635 4.543 4.543 0 01-.442-1.195l-.759 1.04c-.42.575-.401 1.503.041 2.06l1.837 2.318c.442.558 1.387 1.015 2.1 1.015H17.35a1.3 1.3 0 001.295-1.295v-6.476a1.3 1.3 0 00-1.295-1.296z" fill="#000" fill-opacity=".78"/></svg>