<svg width="45" height="28" fill="none" xmlns="http://www.w3.org/2000/svg"><path d="M10.082 27.06c-5.01 0-9.085-4.077-9.085-9.087s4.075-9.086 9.085-9.086c5.01 0 9.087 4.076 9.087 9.086 0 5.01-4.077 9.086-9.087 9.086zm0-16.667c-4.18 0-7.58 3.4-7.58 7.58s3.4 7.58 7.58 7.58 7.58-3.4 7.58-7.58-3.4-7.58-7.58-7.58zM35.91 27.06c-5.01 0-9.086-4.077-9.086-9.087S30.9 8.887 35.91 8.887c5.01 0 9.086 4.076 9.086 9.086 0 5.01-4.076 9.086-9.086 9.086zm0-16.667c-4.18 0-7.58 3.4-7.58 7.58s3.4 7.58 7.58 7.58 7.58-3.4 7.58-7.58-3.4-7.58-7.58-7.58zm-3.514-3.238h-15.01a.753.753 0 110-1.507h15.01a.753.753 0 010 1.507z" fill="#fff"/><path d="M10.082 18.726a.753.753 0 01-.636-1.155L16.75 6a.753.753 0 111.274.804l-7.305 11.57a.753.753 0 01-.637.352zm13.63-1.206a.751.751 0 01-.577-1.236l8.684-10.366a.754.754 0 011.155.967L24.29 17.25a.753.753 0 01-.578.27z" fill="#fff"/><path d="M22.08 17.295a.753.753 0 01-.692-.457L14.612 1.051a.752.752 0 111.383-.594l6.777 15.788a.752.752 0 01-.691 1.05zm-.954 1.431H10.082a.753.753 0 110-1.506h11.044a.753.753 0 010 1.506z" fill="#fff"/><path d="M19.545 1.507H13.17a.753.753 0 110-1.506h6.375a.753.753 0 010 1.506zM35.91 18.725a.753.753 0 01-.72-.534L31.676 6.62a.752.752 0 01-.033-.219V1.808a.753.753 0 011.506 0v4.481l3.482 11.464a.753.753 0 01-.72.972z" fill="#fff"/><path d="M36.965 7.08a.753.753 0 110-1.507c.802 0 1.48-.69 1.48-1.506 0-.83-.664-1.506-1.48-1.506h-4.569a.753.753 0 010-1.506h4.569c1.646 0 2.986 1.351 2.986 3.012 0 1.66-1.34 3.012-2.986 3.012zM22.707 20.306a2.337 2.337 0 01-2.334-2.334 2.337 2.337 0 012.334-2.334c1.266 0 2.335 1.07 2.335 2.334a2.337 2.337 0 01-2.335 2.334zm0-3.162a.84.84 0 00-.828.828c0 .465.364.828.828.828a.839.839 0 00.828-.828.85.85 0 00-.828-.828z" fill="#fff"/></svg>