<svg width="47" height="39" fill="none" xmlns="http://www.w3.org/2000/svg"><path d="M21.934 31.438c1.99 0 3.58 1.591 3.58 3.382a3.566 3.566 0 01-3.58 3.58 3.566 3.566 0 01-3.581-3.58c0-1.79 1.591-3.382 3.58-3.382zm17.306 0c1.791 0 3.383 1.591 3.383 3.382 0 1.99-1.592 3.58-3.382 3.58a3.566 3.566 0 01-3.581-3.58c0-1.79 1.591-3.382 3.58-3.382zM1.641 4.183C-.547 4.183-.547.8 1.641.8H9.4l2.785 7.162H47l-4.775 16.71H18.551l.796 1.99H41.43c2.188 0 2.188 3.382 0 3.382H17.159L7.212 4.183h-5.57z" fill="#fff"/></svg>