<svg width="17" height="16" viewBox="0 0 17 16" fill="none" xmlns="http://www.w3.org/2000/svg">
<path fill-rule="evenodd" clip-rule="evenodd" d="M8.53184 0C13.1798 0 17 3.59551 17 8.02996C17 12.4045 13.1798 16 8.53184 16C3.82023 16 0 12.4045 0 8.02996C0 3.59551 3.82023 0 8.53184 0ZM13.8165 10.6667L12.2884 9.28839C12.0337 8.98876 11.588 8.98876 11.2697 9.28839L10.2509 10.2472L10.1236 10.1873C8.65918 9.04869 7.38577 7.85019 6.2397 6.47191L6.11236 6.35206L7.19476 5.39326C7.44944 5.15356 7.44944 4.67416 7.19476 4.43446L5.66667 3.05618C5.41198 2.75655 4.90262 2.75655 4.64794 3.05618L3.62921 4.01498L3.18352 4.43446C1.7191 5.81273 10.8876 14.382 12.2884 13.0637L12.7341 12.6442L13.8165 11.6255C14.0712 11.3858 14.0712 10.9663 13.8165 10.6667Z" fill="white"/>
</svg>
