<svg width="14" height="14" viewBox="0 0 14 14" fill="none" xmlns="http://www.w3.org/2000/svg">
<path d="M13.7214 9.10276C12.9723 8.66007 12.0869 8.59197 12.0528 8.59197H12.0188C9.83937 8.59197 8.954 10.1244 8.74968 11.2481H4.62926C4.39089 10.2946 3.77793 9.06871 2.44986 8.62602C2.48392 8.55791 2.51797 8.48981 2.51797 8.4217L3.4374 2.05378C3.53956 1.88352 3.74388 1.78136 3.9482 1.78136C4.22062 1.78136 4.45899 1.54299 4.45899 1.27056C4.45899 0.998137 4.22062 0.759766 3.9482 0.759766C3.33524 0.759766 2.75634 1.1003 2.48392 1.64514L2.44986 1.71325L1.53043 8.25144C1.53043 8.31954 1.53043 8.38765 1.53043 8.4217C1.49638 8.4217 1.46232 8.4217 1.39422 8.4217C1.12179 8.4217 0.883423 8.66007 0.883423 8.9325C0.883423 9.20492 1.12179 9.44329 1.39422 9.44329C3.3693 9.44329 3.64172 11.6908 3.67577 11.793L3.70983 12.2356H9.77127C10.0437 12.2356 10.2821 12.0994 10.2821 11.827C10.2821 11.5546 10.0437 11.3162 9.77127 11.3162C9.90748 10.6692 10.4183 9.61356 12.0188 9.5795C12.1209 9.5795 12.7339 9.64761 13.2447 9.95409C13.4831 10.0903 13.7895 10.0222 13.9598 9.78382C14.062 9.54545 13.9598 9.23897 13.7214 9.10276Z" fill="#242F40"/>
<path d="M1.36212 10.3956C0.612955 10.3956 0 11.0086 0 11.7577C0 12.5069 0.612955 13.1198 1.36212 13.1198C2.11129 13.1198 2.72424 12.5069 2.72424 11.7577C2.72424 11.0086 2.14534 10.3956 1.36212 10.3956ZM1.36212 12.1323C1.1578 12.1323 1.02159 11.962 1.02159 11.7918C1.02159 11.6215 1.19186 11.4512 1.36212 11.4512C1.53239 11.4512 1.70265 11.6215 1.70265 11.7918C1.70265 11.962 1.56644 12.1323 1.36212 12.1323Z" fill="#242F40"/>
<path d="M12.0202 10.3956C11.271 10.3956 10.6581 11.0086 10.6581 11.7577C10.6581 12.5069 11.271 13.1198 12.0202 13.1198C12.7694 13.1198 13.3823 12.5069 13.3823 11.7577C13.3823 11.0086 12.7694 10.3956 12.0202 10.3956ZM12.0202 12.1323C11.8159 12.1323 11.6797 11.962 11.6797 11.7918C11.6797 11.6215 11.8499 11.4512 12.0202 11.4512C12.1905 11.4512 12.3607 11.6215 12.3607 11.7918C12.3607 11.962 12.2245 12.1323 12.0202 12.1323Z" fill="#242F40"/>
<path d="M5.03948 1.85078H6.06107C6.3335 1.85078 6.57187 1.61241 6.57187 1.33999C6.57187 1.06756 6.3335 0.829193 6.06107 0.829193H5.03948C4.76706 0.829193 4.52869 1.06756 4.52869 1.33999C4.52869 1.61241 4.733 1.85078 5.03948 1.85078Z" fill="#242F40"/>
</svg>
