<svg width="18" height="11" viewBox="0 0 18 11" fill="none" xmlns="http://www.w3.org/2000/svg">
<path d="M14.714 4.26531C14.3489 4.26531 13.9838 4.34014 13.6187 4.45238L13.5091 4.4898L12.3043 2.17007V1.12245H13.6917C13.9473 1.12245 14.1663 1.34694 14.1663 1.60884C14.1663 1.87075 13.9473 2.09524 13.6917 2.09524C13.4361 2.09524 13.2535 2.28231 13.2535 2.54422C13.2535 2.80612 13.4361 2.9932 13.6917 2.9932C14.4219 2.9932 15.0426 2.39456 15.0426 1.60884C15.0426 0.935374 14.568 0.448979 13.9473 0.336735C13.8742 0.29932 13.8377 0.37415 13.8012 0.37415H11.8661C11.6105 0.37415 11.6105 0.448979 11.6105 0.710884V1.87075H6.97363L6.57201 1.12245H7.66734C7.92292 1.12245 8.10548 0.823129 8.10548 0.561224C8.10548 0.29932 7.92292 0 7.66734 0H4.12576C3.87018 0 3.68763 0.29932 3.68763 0.561224C3.68763 0.823129 3.87018 1.12245 4.12576 1.12245H5.62272L6.02434 1.94558L5.91481 1.98299C5.84179 2.02041 5.80527 2.05782 5.76876 2.13265L4.49087 4.4898L4.38134 4.45238C4.01623 4.34014 3.65112 4.26531 3.286 4.26531C1.46045 4.26531 0 5.7619 0 7.63265C0 9.5034 1.46045 11 3.286 11C4.8925 11 6.24341 9.91497 6.49899 8.30612C6.49899 8.30612 6.49899 8.26871 6.5355 8.26871C6.5355 8.23129 6.75456 8.26871 6.75456 8.26871C6.93712 8.26871 7.11968 8.26871 7.33874 8.26871C7.77688 8.26871 8.21501 8.26871 8.65314 8.26871C8.79919 8.26871 8.98174 8.30612 9.12779 8.19388C9.27383 8.11905 10.7343 5.31292 10.9533 4.86394C11.1724 4.4898 11.355 4.11565 11.574 3.7415C11.6471 3.59184 11.7566 3.44218 11.8296 3.2551L12.7424 4.93878L12.6694 5.01361C11.8661 5.64966 11.428 6.62245 11.428 7.63265C11.428 9.5034 12.8884 11 14.714 11C16.5396 11 18 9.5034 18 7.63265C18 5.7619 16.503 4.26531 14.714 4.26531ZM4.85598 5.68707L5.00203 5.83673C5.33063 6.17347 5.58621 6.54762 5.69574 6.9966L5.73225 7.14626H4.08925L4.85598 5.68707ZM5.65923 8.23129C5.36714 9.31633 4.41785 10.102 3.32252 10.102C2.00811 10.102 0.912779 8.97959 0.912779 7.63265C0.912779 6.06122 2.33671 4.82653 3.94321 5.23809L4.12576 5.27551L2.99392 7.40816C2.99392 7.44558 2.9574 7.44558 2.9574 7.48299V7.52041V7.55782V7.59524V7.70748V7.7449L2.99392 7.85714C2.99392 7.85714 2.99391 7.89456 3.03043 7.89456C3.03043 7.89456 3.03043 7.93197 3.06694 7.93197L3.24949 8.04422V8.19388L3.286 8.04422H3.32252C3.35903 8.04422 3.35903 8.04422 3.35903 8.04422H5.76876L5.65923 8.23129ZM6.57201 7.10884L6.5355 7.03401C6.38945 6.21088 5.98783 5.5 5.33063 4.97619L5.25761 4.90136L6.42596 2.73129L8.36106 7.10884H6.57201ZM9.05477 6.5102L7.37525 2.65646H11.1359L9.05477 6.5102ZM14.714 10.102C13.3996 10.102 12.3043 8.97959 12.3043 7.63265C12.3043 6.95918 12.5963 6.28571 13.071 5.83673L13.217 5.72449L14.3489 7.85714C14.4584 8.08163 14.714 8.15646 14.9331 8.04422C15.0426 7.96939 15.1156 7.89456 15.1521 7.78231C15.1886 7.67007 15.1886 7.55782 15.1156 7.44558L13.9838 5.31292L14.1663 5.27551C15.7363 4.86395 17.1602 6.09864 17.1602 7.67007C17.1237 8.97959 16.0284 10.102 14.714 10.102Z" fill="#242F40"/>
</svg>
